# xmcd
#
# Track frame offsets: 
#        150
#        23659
#        34169
#        51664
#        62710
#        80230
#        90707
#        102142
#        114182
#        125252
#        137642
#        151200
#        163115
#        176335
#        187841
#        203842
#        217211
#        231454
#        249670
#        261165
#        280169
#        294052
#        309735
#        319395
#        333315
#
# Disc length: 4622 seconds
#
# Revision: 9
# Processed by: cddbd v1.5.2PL0 Copyright (c) Steve Scherf et al.
# Submitted via: ExactAudioCopyFreeDBPlugin 1.0
#
DISCID=6d120c19
DTITLE=John Fogerty - The Long Road Home
DYEAR=2005
DGENRE=Rock
TTITLE0=Creedence Clearwater Revival - Born On The Bayou
TTITLE1=Creedence Clearwater Revival - Bad Moon Rising
TTITLE2=Centerfield
TTITLE3=Creedence Clearwater Revival - Who'll Stop The Rain
TTITLE4=Rambunctious Boy
TTITLE5=Creedence Clearwater Revival - Fortunate Son
TTITLE6=Creedence Clearwater Revival - Lookin' Out My Back Door
TTITLE7=Creedence Clearwater Revival - Up Around The Bend
TTITLE8=Almost Saturday Night (Live)
TTITLE9=Creedence Clearwater Revival - Down On The Corner
TTITLE10=Bootleg (Live)
TTITLE11=Creedence Clearwater Revival - Have You Ever Seen The Rain?
TTITLE12=Creedence Clearwater Revival - Sweet Hitch-Hiker
TTITLE13=Hey Tonight (Live)
TTITLE14=The Old Man Down The Road
TTITLE15=Rockin' All Over The World (Live)
TTITLE16=Creedence Clearwater Revival - Lodi
TTITLE17=Keep On Chooglin' (Live)
TTITLE18=Creedence Clearwater Revival - Green River
TTITLE19=Déjà Vu (All Over Again)
TTITLE20=Creedence Clearwater Revival - Run Through The Jungle
TTITLE21=Hot Rod Heart
TTITLE22=Creedence Clearwater Revival - Travelin' Band
TTITLE23=Creedence Clearwater Revival - Proud Mary
TTITLE24=Fortunate Son (Live)
EXTD=2005\nThe Ultimate John Fogerty - Creedence Collection
EXTT0=CCR
EXTT1=CCR
EXTT2=John Fogerty
EXTT3=CCR
EXTT4=John Fogerty
EXTT5=CCR
EXTT6=CCR
EXTT7=CCR
EXTT8=John Fogerty
EXTT9=CCR
EXTT10=John Fogerty
EXTT11=CCR
EXTT12=CCR
EXTT13=John Fogerty
EXTT14=John Fogerty
EXTT15=John Fogerty
EXTT16=CCR
EXTT17=John Fogerty
EXTT18=CCR
EXTT19=John Fogerty
EXTT20=CCR
EXTT21=John Fogerty
EXTT22=CCR
EXTT23=CCR
EXTT24=John Fogerty
PLAYORDER=
